<?xml version="1.0" encoding="UTF-8"?>
<svg width="197px" height="31px" viewBox="0 0 197 31" version="1.1" xmlns="http://www.w3.org/2000/svg" xmlns:xlink="http://www.w3.org/1999/xlink">
    <!-- Generator: Sketch 42 (36781) - http://www.bohemiancoding.com/sketch -->
    <title>Logo</title>
    <desc>Created with Sketch.</desc>
    <defs></defs>
    <g id="Page-1" stroke="none" stroke-width="1" fill="none" fill-rule="evenodd">
        <g id="Desktop-HD" transform="translate(-161.000000, -14.000000)" fill="#45B4D7">
            <g id="Logo" transform="translate(161.000000, 14.000000)">
                <text id="My-Talking-Pet" font-family="Montserrat-Bold, Montserrat" font-size="21" font-weight="bold">
                    <tspan x="40" y="23">My Talking Pet</tspan>
                </text>
                <path d="M9.57605479,27.9479466 L2.01290451,31.0036576 L4.72175457,25.0136423 C1.8346872,22.4093344 0.0331983183,18.7200824 0.0331983183,14.6292176 C0.0331983183,6.73943973 6.73406368,0.343511055 15,0.343511055 C23.2659363,0.343511055 29.9668017,6.73943973 29.9668017,14.6292176 C29.9668017,22.5189954 23.2659363,28.9149241 15,28.9149241 C13.0869677,28.9149241 11.2577644,28.5723425 9.57605479,27.9479466 Z M19.8558339,21.3390023 C21.4945478,19.7039228 19.8096187,13.5922483 14.8578526,13.5922483 C10.0576339,13.5922483 8.21538052,19.7100094 9.85948624,21.3390023 C11.5998736,23.0633518 13.6079241,20.3677301 14.8578526,20.3677301 C16.1075887,20.3677301 18.1764891,23.0148435 19.8558339,21.3390023 Z M13.9063434,8.46042219 C13.6269271,7.04183563 12.6178247,6.04139383 11.6518312,6.22532576 C10.6858377,6.40944254 10.1297735,7.70879684 10.4087943,9.12719853 C10.6882107,10.5456002 11.6975107,11.5464117 12.6635043,11.362295 C13.6293,11.1781782 14.1857598,9.87882388 13.9063434,8.46042219 Z M9.09778781,11.6124321 C8.39930917,10.6341259 7.2750801,10.2520334 6.58551161,10.7589365 C5.89613682,11.2658396 5.90349738,12.4704118 6.60158863,13.4489048 C7.29987357,14.4270241 8.42449004,14.8093034 9.11386483,14.3024003 C9.80323961,13.7954972 9.79587905,12.5909251 9.09778781,11.6124321 Z M15.9160947,8.46042219 C15.6364806,9.87882388 16.1929405,11.1781782 17.1589342,11.362295 C18.124928,11.5464117 19.1340306,10.5456002 19.4136448,9.12719853 C19.692468,7.70879684 19.1364036,6.40944254 18.1704098,6.22532576 C17.204416,6.04139383 16.1953134,7.04183563 15.9160947,8.46042219 Z M20.6359003,11.6124321 C19.9376295,12.5909251 19.9302691,13.7954972 20.6196299,14.3024003 C21.3089908,14.8093034 22.4335844,14.4270241 23.1320489,13.4489048 C23.830126,12.4704118 23.8372927,11.2658396 23.1479319,10.7589365 C22.4585711,10.2520334 21.3343648,10.6341259 20.6359003,11.6124321 Z" id="Combined-Shape"></path>
            </g>
        </g>
    </g>
</svg>