<?xml version="1.0" encoding="UTF-8"?>
<svg width="290px" height="35px" viewBox="0 0 290 35" version="1.1" xmlns="http://www.w3.org/2000/svg" xmlns:xlink="http://www.w3.org/1999/xlink">
    <!-- Generator: Sketch 42 (36781) - http://www.bohemiancoding.com/sketch -->
    <title>logo-white</title>
    <desc>Created with Sketch.</desc>
    <defs></defs>
    <g id="Page-1" stroke="none" stroke-width="1" fill="none" fill-rule="evenodd">
        <g id="Desktop-HD" transform="translate(-160.000000, -793.000000)" fill="#FFFFFF">
            <g id="logo-white" transform="translate(160.000000, 793.000000)">
                <path d="M21.496,13.48 L15.259,26.086 L12.19,26.086 L5.986,13.48 L5.986,28 L0.838,28 L0.838,4.933 L7.801,4.933 L13.741,17.605 L19.714,4.933 L26.644,4.933 L26.644,28 L21.496,28 L21.496,13.48 Z M34.894,34.996 C33.1559913,34.996 31.5170077,34.292007 29.977,32.884 L32.221,29.221 C33.0570042,30.0350041 33.9149956,30.442 34.795,30.442 C35.2570023,30.442 35.6529983,30.2165023 35.983,29.7655 C36.3130016,29.3144977 36.478,28.8360025 36.478,28.33 C36.478,27.8239975 34.1900229,21.7960578 29.614,10.246 L34.894,10.246 L39.217,21.301 L43.54,10.246 L48.82,10.246 L40.57,31.168 C40.0859976,32.3780061 39.3325051,33.3184966 38.3095,33.9895 C37.2864949,34.6605034 36.1480063,34.996 34.894,34.996 Z M70.27,9.388 L70.27,28 L65.122,28 L65.122,9.388 L58.588,9.388 L58.588,4.933 L76.804,4.933 L76.804,9.388 L70.27,9.388 Z M95.152,28 L90.499,28 L90.499,25.855 C89.2229936,27.461008 87.6445094,28.264 85.7635,28.264 C83.8824906,28.264 82.3040064,27.7195054 81.028,26.6305 C79.7519936,25.5414946 79.114,24.0895091 79.114,22.2745 C79.114,20.4594909 79.7739934,19.1010045 81.094,18.199 C82.4140066,17.2969955 84.2179886,16.846 86.506,16.846 L90.202,16.846 L90.202,16.747 C90.202,14.8549905 89.20101,13.909 87.199,13.909 C86.3409957,13.909 85.4335048,14.0794983 84.4765,14.4205 C83.5194952,14.7615017 82.7110033,15.1849975 82.051,15.691 L79.84,12.49 C82.1720117,10.7959915 84.833985,9.949 87.826,9.949 C89.9820108,9.949 91.7419932,10.4879946 93.106,11.566 C94.4700068,12.6440054 95.152,14.3489883 95.152,16.681 L95.152,28 Z M90.169,21.235 L90.169,20.377 L87.067,20.377 C85.0869901,20.377 84.097,20.9929938 84.097,22.225 C84.097,22.8630032 84.3334976,23.3524983 84.8065,23.6935 C85.2795024,24.0345017 85.9559956,24.205 86.836,24.205 C87.7160044,24.205 88.4914966,23.9355027 89.1625,23.3965 C89.8335034,22.8574973 90.169,22.1370045 90.169,21.235 Z M104.623,28 L99.673,28 L99.673,3.514 L104.623,3.514 L104.623,28 Z M114.259,28 L109.309,28 L109.309,3.514 L114.259,3.514 L114.259,16.087 L119.77,10.213 L126.007,10.213 L119.242,17.407 L126.271,28 L120.397,28 L115.876,21.202 L114.259,22.885 L114.259,28 Z M133.894,28 L128.944,28 L128.944,10.246 L133.894,10.246 L133.894,28 Z M128.515,5.923 C128.515,5.10899593 128.795497,4.42150281 129.3565,3.8605 C129.917503,3.2994972 130.604996,3.019 131.419,3.019 C132.233004,3.019 132.920497,3.2994972 133.4815,3.8605 C134.042503,4.42150281 134.323,5.10899593 134.323,5.923 C134.323,6.73700407 134.042503,7.4244972 133.4815,7.9855 C132.920497,8.54650281 132.233004,8.827 131.419,8.827 C130.604996,8.827 129.917503,8.54650281 129.3565,7.9855 C128.795497,7.4244972 128.515,6.73700407 128.515,5.923 Z M143.53,18.1 L143.53,28 L138.58,28 L138.58,10.246 L143.53,10.246 L143.53,12.226 C145.026007,10.7079924 146.708991,9.949 148.579,9.949 C150.449009,9.949 152.016494,10.6089934 153.2815,11.929 C154.546506,13.2490066 155.179,15.008989 155.179,17.209 L155.179,28 L150.229,28 L150.229,17.968 C150.229,15.2399864 149.22801,13.876 147.226,13.876 C146.235995,13.876 145.372504,14.2334964 144.6355,14.9485 C143.898496,15.6635036 143.53,16.7139931 143.53,18.1 Z M170.92,15.394 C170.127996,14.5799959 169.149006,14.173 167.983,14.173 C166.816994,14.173 165.810504,14.5799959 164.9635,15.394 C164.116496,16.2080041 163.693,17.318993 163.693,18.727 C163.693,20.135007 164.105496,21.2734957 164.9305,22.1425 C165.755504,23.0115043 166.761994,23.446 167.95,23.446 C169.138006,23.446 170.127996,23.0170043 170.92,22.159 C171.712004,21.3009957 172.108,20.1625071 172.108,18.7435 C172.108,17.3244929 171.712004,16.2080041 170.92,15.394 Z M172.801,24.997 C171.238992,26.7350087 169.297512,27.604 166.9765,27.604 C164.655488,27.604 162.697508,26.8175079 161.1025,25.2445 C159.507492,23.6714921 158.71,21.5705131 158.71,18.9415 C158.71,16.3124869 159.529492,14.1565084 161.1685,12.4735 C162.807508,10.7904916 164.682989,9.949 166.795,9.949 C168.907011,9.949 170.655993,10.8179913 172.042,12.556 L172.042,10.213 L176.992,10.213 L176.992,25.69 C176.992,27.2740079 176.717003,28.6819938 176.167,29.914 C175.616997,31.1460062 174.880005,32.1139965 173.956,32.818 C172.129991,34.2700073 169.974012,34.996 167.488,34.996 C166.167993,34.996 164.820507,34.7815021 163.4455,34.3525 C162.070493,33.9234979 160.866005,33.313004 159.832,32.521 L161.746,28.792 C163.374008,30.0240062 165.095491,30.64 166.9105,30.64 C168.725509,30.64 170.160995,30.1890045 171.217,29.287 C172.273005,28.3849955 172.801,26.9550098 172.801,24.997 Z M206.7745,6.9955 C208.391508,8.37050688 209.2,10.4824858 209.2,13.3315 C209.2,16.1805142 208.369508,18.2649934 206.7085,19.585 C205.047492,20.9050066 202.512017,21.565 199.102,21.565 L196.033,21.565 L196.033,28 L190.885,28 L190.885,4.933 L199.036,4.933 C202.578018,4.933 205.157492,5.62049313 206.7745,6.9955 Z M202.996,16.0705 C203.612003,15.3774965 203.92,14.3655067 203.92,13.0345 C203.92,11.7034933 203.518504,10.7575028 202.7155,10.1965 C201.912496,9.6354972 200.664008,9.355 198.97,9.355 L196.033,9.355 L196.033,17.11 L199.498,17.11 C201.214009,17.11 202.379997,16.7635035 202.996,16.0705 Z M228.109,25.426 C226.10699,27.3180095 223.758513,28.264 221.0635,28.264 C218.368487,28.264 216.141009,27.4335083 214.381,25.7725 C212.620991,24.1114917 211.741,21.884014 211.741,19.09 C211.741,16.295986 212.637491,14.0740083 214.4305,12.424 C216.223509,10.7739918 218.340988,9.949 220.783,9.949 C223.225012,9.949 225.298491,10.6859926 227.0035,12.16 C228.708509,13.6340074 229.561,15.6579871 229.561,18.232 L229.561,20.872 L216.625,20.872 C216.779001,21.8400048 217.284996,22.6319969 218.143,23.248 C219.001004,23.8640031 219.968995,24.172 221.047,24.172 C222.785009,24.172 224.214994,23.5890058 225.337,22.423 L228.109,25.426 Z M223.357,14.899 C222.674997,14.3269971 221.844505,14.041 220.8655,14.041 C219.886495,14.041 218.990004,14.337997 218.176,14.932 C217.361996,15.526003 216.889001,16.3289949 216.757,17.341 L224.545,17.341 C224.434999,16.2849947 224.039003,15.4710029 223.357,14.899 Z M239.032,13.81 L239.032,21.763 C239.032,22.4450034 239.207998,22.9784981 239.56,23.3635 C239.912002,23.7485019 240.329998,23.941 240.814,23.941 C241.738005,23.941 242.518997,23.5230042 243.157,22.687 L245.005,26.152 C243.464992,27.560007 241.842509,28.264 240.1375,28.264 C238.432491,28.264 236.991506,27.7030056 235.8145,26.581 C234.637494,25.4589944 234.049,23.9300097 234.049,21.994 L234.049,13.81 L231.97,13.81 L231.97,10.246 L234.049,10.246 L234.049,4.933 L239.032,4.933 L239.032,10.246 L243.322,10.246 L243.322,13.81 L239.032,13.81 Z" id="My-Talking-Pet"></path>
                <path d="M269.576055,27.9479466 L262.012905,31.0036576 L264.721755,25.0136423 C261.834687,22.4093344 260.033198,18.7200824 260.033198,14.6292176 C260.033198,6.73943973 266.734064,0.343511055 275,0.343511055 C283.265936,0.343511055 289.966802,6.73943973 289.966802,14.6292176 C289.966802,22.5189954 283.265936,28.9149241 275,28.9149241 C273.086968,28.9149241 271.257764,28.5723425 269.576055,27.9479466 Z M279.855834,21.3390023 C281.494548,19.7039228 279.809619,13.5922483 274.857853,13.5922483 C270.057634,13.5922483 268.215381,19.7100094 269.859486,21.3390023 C271.599874,23.0633518 273.607924,20.3677301 274.857853,20.3677301 C276.107589,20.3677301 278.176489,23.0148435 279.855834,21.3390023 Z M273.906343,8.46042219 C273.626927,7.04183563 272.617825,6.04139383 271.651831,6.22532576 C270.685838,6.40944254 270.129773,7.70879684 270.408794,9.12719853 C270.688211,10.5456002 271.697511,11.5464117 272.663504,11.362295 C273.6293,11.1781782 274.18576,9.87882388 273.906343,8.46042219 Z M269.097788,11.6124321 C268.399309,10.6341259 267.27508,10.2520334 266.585512,10.7589365 C265.896137,11.2658396 265.903497,12.4704118 266.601589,13.4489048 C267.299874,14.4270241 268.42449,14.8093034 269.113865,14.3024003 C269.80324,13.7954972 269.795879,12.5909251 269.097788,11.6124321 Z M275.916095,8.46042219 C275.636481,9.87882388 276.19294,11.1781782 277.158934,11.362295 C278.124928,11.5464117 279.134031,10.5456002 279.413645,9.12719853 C279.692468,7.70879684 279.136404,6.40944254 278.17041,6.22532576 C277.204416,6.04139383 276.195313,7.04183563 275.916095,8.46042219 Z M280.6359,11.6124321 C279.93763,12.5909251 279.930269,13.7954972 280.61963,14.3024003 C281.308991,14.8093034 282.433584,14.4270241 283.132049,13.4489048 C283.830126,12.4704118 283.837293,11.2658396 283.147932,10.7589365 C282.458571,10.2520334 281.334365,10.6341259 280.6359,11.6124321 Z" id="Combined-Shape"></path>
            </g>
        </g>
    </g>
</svg>