<?xml version="1.0" encoding="UTF-8"?>
<svg width="198px" height="31px" viewBox="0 0 198 31" version="1.1" xmlns="http://www.w3.org/2000/svg" xmlns:xlink="http://www.w3.org/1999/xlink">
    <!-- Generator: Sketch 42 (36781) - http://www.bohemiancoding.com/sketch -->
    <title>logo</title>
    <desc>Created with Sketch.</desc>
    <defs></defs>
    <g id="Page-1" stroke="none" stroke-width="1" fill="none" fill-rule="evenodd">
        <g id="Desktop-HD" transform="translate(-161.000000, -14.000000)" fill="#45B4D7">
            <g id="logo" transform="translate(161.000000, 14.000000)">
                <path d="M54.952,13.76 L50.983,21.782 L49.03,21.782 L45.082,13.76 L45.082,23 L41.806,23 L41.806,8.321 L46.237,8.321 L50.017,16.385 L53.818,8.321 L58.228,8.321 L58.228,23 L54.952,23 L54.952,13.76 Z M63.478,27.452 C62.3719945,27.452 61.3290049,27.0040045 60.349,26.108 L61.777,23.777 C62.3090027,24.2950026 62.8549972,24.554 63.415,24.554 C63.7090015,24.554 63.960999,24.4105014 64.171,24.1235 C64.3810011,23.8364986 64.486,23.5320016 64.486,23.21 C64.486,22.8879984 63.0300146,19.0520367 60.118,11.702 L63.478,11.702 L66.229,18.737 L68.98,11.702 L72.34,11.702 L67.09,25.016 C66.7819985,25.7860038 66.3025033,26.3844979 65.6515,26.8115 C65.0004967,27.2385021 64.276004,27.452 63.478,27.452 Z M85.99,11.156 L85.99,23 L82.714,23 L82.714,11.156 L78.556,11.156 L78.556,8.321 L90.148,8.321 L90.148,11.156 L85.99,11.156 Z M101.824,23 L98.863,23 L98.863,21.635 C98.0509959,22.6570051 97.046506,23.168 95.8495,23.168 C94.652494,23.168 93.6480041,22.8215035 92.836,22.1285 C92.0239959,21.4354965 91.618,20.5115058 91.618,19.3565 C91.618,18.2014942 92.0379958,17.3370029 92.878,16.763 C93.7180042,16.1889971 94.8659927,15.902 96.322,15.902 L98.674,15.902 L98.674,15.839 C98.674,14.634994 98.0370064,14.033 96.763,14.033 C96.2169973,14.033 95.639503,14.1414989 95.0305,14.3585 C94.421497,14.5755011 93.9070021,14.8449984 93.487,15.167 L92.08,13.13 C93.5640074,12.0519946 95.2579905,11.513 97.162,11.513 C98.5340069,11.513 99.6539957,11.8559966 100.522,12.542 C101.390004,13.2280034 101.824,14.3129926 101.824,15.797 L101.824,23 Z M98.653,18.695 L98.653,18.149 L96.679,18.149 C95.4189937,18.149 94.789,18.5409961 94.789,19.325 C94.789,19.731002 94.9394985,20.0424989 95.2405,20.2595 C95.5415015,20.4765011 95.9719972,20.585 96.532,20.585 C97.0920028,20.585 97.5854979,20.4135017 98.0125,20.0705 C98.4395021,19.7274983 98.653,19.2690029 98.653,18.695 Z M107.851,23 L104.701,23 L104.701,7.418 L107.851,7.418 L107.851,23 Z M113.983,23 L110.833,23 L110.833,7.418 L113.983,7.418 L113.983,15.419 L117.49,11.681 L121.459,11.681 L117.154,16.259 L121.627,23 L117.889,23 L115.012,18.674 L113.983,19.745 L113.983,23 Z M126.478,23 L123.328,23 L123.328,11.702 L126.478,11.702 L126.478,23 Z M123.055,8.951 C123.055,8.43299741 123.233498,7.99550178 123.5905,7.6385 C123.947502,7.28149821 124.384997,7.103 124.903,7.103 C125.421003,7.103 125.858498,7.28149821 126.2155,7.6385 C126.572502,7.99550178 126.751,8.43299741 126.751,8.951 C126.751,9.46900259 126.572502,9.90649821 126.2155,10.2635 C125.858498,10.6205018 125.421003,10.799 124.903,10.799 C124.384997,10.799 123.947502,10.6205018 123.5905,10.2635 C123.233498,9.90649821 123.055,9.46900259 123.055,8.951 Z M132.61,16.7 L132.61,23 L129.46,23 L129.46,11.702 L132.61,11.702 L132.61,12.962 C133.562005,11.9959952 134.632994,11.513 135.823,11.513 C137.013006,11.513 138.010496,11.9329958 138.8155,12.773 C139.620504,13.6130042 140.023,14.732993 140.023,16.133 L140.023,23 L136.873,23 L136.873,16.616 C136.873,14.8799913 136.236006,14.012 134.962,14.012 C134.331997,14.012 133.782502,14.2394977 133.3135,14.6945 C132.844498,15.1495023 132.61,15.8179956 132.61,16.7 Z M150.04,14.978 C149.535997,14.4599974 148.913004,14.201 148.171,14.201 C147.428996,14.201 146.788503,14.4599974 146.2495,14.978 C145.710497,15.4960026 145.441,16.2029955 145.441,17.099 C145.441,17.9950045 145.703497,18.7194972 146.2285,19.2725 C146.753503,19.8255028 147.393996,20.102 148.15,20.102 C148.906004,20.102 149.535997,19.8290027 150.04,19.283 C150.544003,18.7369973 150.796,18.0125045 150.796,17.1095 C150.796,16.2064955 150.544003,15.4960026 150.04,14.978 Z M151.237,21.089 C150.242995,22.1950055 149.007507,22.748 147.5305,22.748 C146.053493,22.748 144.807505,22.247505 143.7925,21.2465 C142.777495,20.245495 142.27,18.9085084 142.27,17.2355 C142.27,15.5624916 142.791495,14.1905054 143.8345,13.1195 C144.877505,12.0484946 146.070993,11.513 147.415,11.513 C148.759007,11.513 149.871996,12.0659945 150.754,13.172 L150.754,11.681 L153.904,11.681 L153.904,21.53 C153.904,22.538005 153.729002,23.4339961 153.379,24.218 C153.028998,25.0020039 152.560003,25.6179978 151.972,26.066 C150.809994,26.9900046 149.438008,27.452 147.856,27.452 C147.015996,27.452 146.158504,27.3155014 145.2835,27.0425 C144.408496,26.7694986 143.642003,26.3810025 142.984,25.877 L144.202,23.504 C145.238005,24.2880039 146.333494,24.68 147.4885,24.68 C148.643506,24.68 149.556997,24.3930029 150.229,23.819 C150.901003,23.2449971 151.237,22.3350062 151.237,21.089 Z M172.8565,9.6335 C173.885505,10.5085044 174.4,11.8524909 174.4,13.6655 C174.4,15.4785091 173.871505,16.8049958 172.8145,17.645 C171.757495,18.4850042 170.144011,18.905 167.974,18.905 L166.021,18.905 L166.021,23 L162.745,23 L162.745,8.321 L167.932,8.321 C170.186011,8.321 171.827495,8.75849562 172.8565,9.6335 Z M170.452,15.4085 C170.844002,14.9674978 171.04,14.3235042 171.04,13.4765 C171.04,12.6294958 170.784503,12.0275018 170.2735,11.6705 C169.762497,11.3134982 168.968005,11.135 167.89,11.135 L166.021,11.135 L166.021,16.07 L168.226,16.07 C169.318005,16.07 170.059998,15.8495022 170.452,15.4085 Z M186.433,21.362 C185.158994,22.566006 183.664509,23.168 181.9495,23.168 C180.234491,23.168 178.817006,22.6395053 177.697,21.5825 C176.576994,20.5254947 176.017,19.1080089 176.017,17.33 C176.017,15.5519911 176.587494,14.1380052 177.7285,13.088 C178.869506,12.0379947 180.216992,11.513 181.771,11.513 C183.325008,11.513 184.644495,11.9819953 185.7295,12.92 C186.814505,13.8580047 187.357,15.1459918 187.357,16.784 L187.357,18.464 L179.125,18.464 C179.223,19.0800031 179.544997,19.583998 180.091,19.976 C180.637003,20.368002 181.252997,20.564 181.939,20.564 C183.045006,20.564 183.954996,20.1930037 184.669,19.451 L186.433,21.362 Z M183.409,14.663 C182.974998,14.2989982 182.446503,14.117 181.8235,14.117 C181.200497,14.117 180.630003,14.3059981 180.112,14.684 C179.593997,15.0620019 179.293,15.5729968 179.209,16.217 L184.165,16.217 C184.095,15.5449966 183.843002,15.0270018 183.409,14.663 Z M193.384,13.97 L193.384,19.031 C193.384,19.4650022 193.495999,19.8044988 193.72,20.0495 C193.944001,20.2945012 194.209998,20.417 194.518,20.417 C195.106003,20.417 195.602998,20.1510027 196.009,19.619 L197.185,21.824 C196.204995,22.7200045 195.172505,23.168 194.0875,23.168 C193.002495,23.168 192.085504,22.8110036 191.3365,22.097 C190.587496,21.3829964 190.213,20.4100062 190.213,19.178 L190.213,13.97 L188.89,13.97 L188.89,11.702 L190.213,11.702 L190.213,8.321 L193.384,8.321 L193.384,11.702 L196.114,11.702 L196.114,13.97 L193.384,13.97 Z" id="My-Talking-Pet"></path>
                <path d="M9.57605479,27.9479466 L2.01290451,31.0036576 L4.72175457,25.0136423 C1.8346872,22.4093344 0.0331983183,18.7200824 0.0331983183,14.6292176 C0.0331983183,6.73943973 6.73406368,0.343511055 15,0.343511055 C23.2659363,0.343511055 29.9668017,6.73943973 29.9668017,14.6292176 C29.9668017,22.5189954 23.2659363,28.9149241 15,28.9149241 C13.0869677,28.9149241 11.2577644,28.5723425 9.57605479,27.9479466 Z M19.8558339,21.3390023 C21.4945478,19.7039228 19.8096187,13.5922483 14.8578526,13.5922483 C10.0576339,13.5922483 8.21538052,19.7100094 9.85948624,21.3390023 C11.5998736,23.0633518 13.6079241,20.3677301 14.8578526,20.3677301 C16.1075887,20.3677301 18.1764891,23.0148435 19.8558339,21.3390023 Z M13.9063434,8.46042219 C13.6269271,7.04183563 12.6178247,6.04139383 11.6518312,6.22532576 C10.6858377,6.40944254 10.1297735,7.70879684 10.4087943,9.12719853 C10.6882107,10.5456002 11.6975107,11.5464117 12.6635043,11.362295 C13.6293,11.1781782 14.1857598,9.87882388 13.9063434,8.46042219 Z M9.09778781,11.6124321 C8.39930917,10.6341259 7.2750801,10.2520334 6.58551161,10.7589365 C5.89613682,11.2658396 5.90349738,12.4704118 6.60158863,13.4489048 C7.29987357,14.4270241 8.42449004,14.8093034 9.11386483,14.3024003 C9.80323961,13.7954972 9.79587905,12.5909251 9.09778781,11.6124321 Z M15.9160947,8.46042219 C15.6364806,9.87882388 16.1929405,11.1781782 17.1589342,11.362295 C18.124928,11.5464117 19.1340306,10.5456002 19.4136448,9.12719853 C19.692468,7.70879684 19.1364036,6.40944254 18.1704098,6.22532576 C17.204416,6.04139383 16.1953134,7.04183563 15.9160947,8.46042219 Z M20.6359003,11.6124321 C19.9376295,12.5909251 19.9302691,13.7954972 20.6196299,14.3024003 C21.3089908,14.8093034 22.4335844,14.4270241 23.1320489,13.4489048 C23.830126,12.4704118 23.8372927,11.2658396 23.1479319,10.7589365 C22.4585711,10.2520334 21.3343648,10.6341259 20.6359003,11.6124321 Z" id="Combined-Shape"></path>
            </g>
        </g>
    </g>
</svg>